<?xml version="1.0" encoding="UTF-8" standalone="no"?>
<!-- Created with Inkscape (http://www.inkscape.org/) -->

<svg
   width="7.9326873mm"
   height="6.6944399mm"
   viewBox="0 0 7.9326873 6.6944399"
   version="1.1"
   id="svg1"
   xml:space="preserve"
   xmlns:inkscape="http://www.inkscape.org/namespaces/inkscape"
   xmlns:sodipodi="http://sodipodi.sourceforge.net/DTD/sodipodi-0.dtd"
   xmlns="http://www.w3.org/2000/svg"
   xmlns:svg="http://www.w3.org/2000/svg"><sodipodi:namedview
     id="namedview1"
     pagecolor="#ffffff"
     bordercolor="#000000"
     borderopacity="0.25"
     inkscape:showpageshadow="2"
     inkscape:pageopacity="0.0"
     inkscape:pagecheckerboard="0"
     inkscape:deskcolor="#d1d1d1"
     inkscape:document-units="mm" /><defs
     id="defs1" /><g
     inkscape:label="Слой 1"
     inkscape:groupmode="layer"
     id="layer1"
     transform="translate(-89.511606,-136.38118)"><path
       style="fill:#000000"
       d="m 95.664856,143.06665 c -0.0393,-0.008 -0.11002,-0.0329 -0.1571,-0.055 -0.0471,-0.0221 -0.48093,-0.33306 -0.96411,-0.69106 -0.48318,-0.35799 -1.11942,-0.82845 -1.41387,-1.04547 -0.29444,-0.21702 -0.55209,-0.41277 -0.57256,-0.43501 -0.0618,-0.0672 -0.0491,-0.12297 0.0496,-0.21732 0.3293,-0.31469 3.36909,-3.03201 3.40123,-3.04043 0.0848,-0.0222 0.16754,0.0712 0.14447,0.16307 -0.007,0.027 -0.56488,0.53925 -1.64661,1.51127 -0.89999,0.80873 -1.63656,1.47786 -1.63682,1.48695 -2.5e-4,0.009 0.19776,0.16165 0.44004,0.339 0.51367,0.37602 1.30052,0.95548 1.86676,1.37473 0.21926,0.16235 0.42552,0.3064 0.45836,0.32012 0.0328,0.0137 0.0957,0.0249 0.13981,0.0249 0.0659,0 0.0879,-0.008 0.12391,-0.0457 0.0241,-0.0251 0.0552,-0.0781 0.0692,-0.11767 0.014,-0.0396 0.29094,-1.31939 0.6155,-2.84403 0.62898,-2.9546 0.6271,-2.94431 0.55844,-3.06147 -0.0407,-0.0695 -0.12417,-0.10315 -0.20762,-0.0838 -0.0477,0.0111 -6.4585,2.47846 -6.86003,2.64029 -0.21784,0.0878 -0.32656,0.17614 -0.28235,0.22942 0.0102,0.0122 0.0436,0.0342 0.0744,0.0488 0.0616,0.0292 1.74403,0.55527 1.77594,0.55527 0.0109,0 0.43445,-0.26198 0.94117,-0.58218 0.58544,-0.36995 0.94054,-0.58457 0.97409,-0.58874 0.10148,-0.0126 0.17157,0.10601 0.11248,0.19038 -0.0137,0.0196 -0.42856,0.28995 -0.92191,0.60089 -0.49336,0.31093 -0.9051,0.57379 -0.91498,0.58411 -0.013,0.0136 0.0686,0.30224 0.29766,1.05231 l 0.31562,1.03353 0.0777,0.005 c 0.0488,0.003 0.0974,-0.005 0.13069,-0.0224 0.0292,-0.0151 0.17279,-0.14461 0.31919,-0.28787 0.1464,-0.14325 0.28347,-0.26593 0.30461,-0.27262 0.0982,-0.0311 0.19636,0.0804 0.15008,0.17039 -0.0127,0.0248 -0.14829,0.16628 -0.30125,0.3145 -0.33274,0.32243 -0.39151,0.35755 -0.59833,0.35758 -0.15528,1e-5 -0.24599,-0.0376 -0.29556,-0.12239 -0.017,-0.0292 -0.17497,-0.52643 -0.35095,-1.10505 -0.17598,-0.57861 -0.32575,-1.05728 -0.33282,-1.0637 -0.007,-0.006 -0.30679,-0.10271 -0.66604,-0.21398 -1.01837,-0.31542 -1.1399,-0.35711 -1.22568,-0.42047 -0.25585,-0.18897 -0.16557,-0.48686 0.20042,-0.66133 0.05,-0.0238 1.6462,-0.6431 3.54707,-1.37612 3.35822,-1.29501 3.45939,-1.3328 3.57187,-1.33413 0.26838,-0.003 0.45142,0.18652 0.46729,0.48429 0.006,0.11381 -0.0445,0.36467 -0.59641,2.96035 -0.33167,1.5598 -0.619,2.87802 -0.63852,2.92938 -0.0436,0.11489 -0.14389,0.23175 -0.23714,0.27646 -0.0849,0.0407 -0.21034,0.055 -0.30695,0.0349 z m -1.7174,-4.1534 c -0.0913,-0.0442 -0.0833,-0.18922 0.0126,-0.22897 0.14726,-0.061 0.24914,0.1639 0.10417,0.22995 -0.0489,0.0223 -0.0691,0.0221 -0.11682,-9.8e-4 z"
       id="path1"
       inkscape:export-filename="path1.svg"
       inkscape:export-xdpi="96"
       inkscape:export-ydpi="96" /></g></svg>
