<?xml version="1.0" encoding="UTF-8" standalone="no"?>
<!-- Created with Inkscape (http://www.inkscape.org/) -->

<svg
   width="16.406103mm"
   height="10.144835mm"
   viewBox="0 0 16.406103 10.144835"
   version="1.1"
   id="svg1"
   xml:space="preserve"
   xmlns:inkscape="http://www.inkscape.org/namespaces/inkscape"
   xmlns:sodipodi="http://sodipodi.sourceforge.net/DTD/sodipodi-0.dtd"
   xmlns="http://www.w3.org/2000/svg"
   xmlns:svg="http://www.w3.org/2000/svg"><sodipodi:namedview
     id="namedview1"
     pagecolor="#ffffff"
     bordercolor="#000000"
     borderopacity="0.25"
     inkscape:showpageshadow="2"
     inkscape:pageopacity="0.0"
     inkscape:pagecheckerboard="0"
     inkscape:deskcolor="#d1d1d1"
     inkscape:document-units="mm" /><defs
     id="defs1" /><g
     inkscape:label="Слой 1"
     inkscape:groupmode="layer"
     id="layer1"
     transform="translate(-81.571215,-121.07688)"><path
       style="fill:#000000"
       d="m 94.73227,131.18029 c -0.199803,-0.0626 -0.398206,-0.23825 -0.572235,-0.50662 -0.274383,-0.42314 -1.444255,-1.62697 -1.946336,-2.00283 -0.249699,-0.18693 -0.563479,-0.33769 -0.624434,-0.30002 -0.01769,0.0109 -0.03126,0.32701 -0.03164,0.73654 -7.71e-4,0.84419 -0.03109,1.09815 -0.161776,1.35497 -0.178019,0.34985 -0.478758,0.58949 -0.863645,0.68818 -0.327237,0.0839 -1.111669,0.0515 -1.636294,-0.0677 -0.965309,-0.2192 -1.962044,-0.71794 -2.817004,-1.40955 -0.375734,-0.30395 -0.982968,-0.92046 -1.298969,-1.31882 -0.443123,-0.55861 -1.142775,-1.63157 -1.673567,-2.56653 -0.835556,-1.47177 -1.536935,-3.26148 -1.535152,-3.91724 8.32e-4,-0.30616 0.154999,-0.55074 0.445093,-0.70612 0.12834,-0.0687 0.169874,-0.0711 1.257204,-0.0711 1.117848,0 1.125423,4.7e-4 1.284547,0.0788 0.199368,0.0982 0.319471,0.26057 0.437462,0.59159 0.415223,1.16489 0.655442,1.75764 0.954708,2.35578 0.505556,1.01045 1.275409,2.0991 1.630656,2.30591 l 0.140185,0.0816 0.03604,-0.0941 c 0.02488,-0.0649 0.03156,-0.55495 0.02156,-1.58237 -0.01861,-1.91349 -2.3e-5,-1.82652 -0.566169,-2.64876 -0.218263,-0.317 -0.263403,-0.40515 -0.274236,-0.53553 -0.01571,-0.18912 0.08105,-0.37922 0.251511,-0.49409 l 0.111874,-0.0754 1.690096,7.3e-4 c 1.885871,8.1e-4 1.832514,-0.005 2.06049,0.23501 0.232729,0.2453 0.22385,0.15504 0.234624,2.38529 0.0079,1.62668 0.01793,2.00918 0.05291,2.00918 0.123983,0 0.551514,-0.41725 0.904416,-0.88266 0.589723,-0.77775 1.280236,-1.95847 1.726282,-2.9518 0.213006,-0.47436 0.3311,-0.63235 0.547827,-0.73291 0.12103,-0.0562 0.232242,-0.0614 1.30638,-0.0614 1.066481,0 1.186281,0.006 1.307114,0.0604 0.273162,0.12409 0.47669,0.41811 0.478097,0.69068 8.15e-4,0.15797 -0.205551,0.7514 -0.388107,1.11605 -0.351164,0.70144 -0.901385,1.60412 -1.482711,2.43248 -0.509253,0.72567 -0.641997,0.94545 -0.641997,1.06294 0,0.11082 0.06465,0.18763 0.760306,0.90328 1.138873,1.17161 1.609002,1.78231 1.999777,2.59773 0.131029,0.27341 0.15554,0.52771 0.07039,0.73033 -0.0811,0.19299 -0.244677,0.38806 -0.390906,0.46616 -0.138907,0.0742 -0.159687,0.0754 -1.397774,0.082 -1.007505,0.005 -1.28649,-0.003 -1.406612,-0.0402 z m -4.148824,-0.58014 c 0.205342,-0.10583 0.362529,-0.30831 0.409552,-0.52757 0.02046,-0.0954 0.03612,-0.51447 0.03612,-0.96663 0,-0.73394 0.0054,-0.80936 0.06698,-0.93658 0.08921,-0.18428 0.165284,-0.24763 0.357153,-0.2974 0.459066,-0.11908 1.035951,0.22284 2.010376,1.19156 0.61146,0.60788 0.984041,1.0298 1.188548,1.34593 0.0786,0.1215 0.173677,0.23738 0.211281,0.25751 0.04731,0.0253 0.435932,0.0337 1.261894,0.0271 l 1.193524,-0.009 0.0632,-0.0781 c 0.105256,-0.13005 0.07724,-0.2418 -0.175904,-0.70156 -0.32431,-0.58902 -0.572873,-0.89367 -2.023277,-2.47986 -0.317264,-0.34697 -0.551652,-0.63318 -0.59056,-0.72114 -0.124718,-0.28194 -0.01899,-0.54107 0.541663,-1.32757 0.862878,-1.21046 1.54095,-2.35806 1.836764,-3.10862 0.136671,-0.34678 0.141734,-0.46712 0.02356,-0.56007 -0.08401,-0.0661 -0.124941,-0.0686 -1.139171,-0.0686 -1.231522,0 -1.142987,-0.0277 -1.319646,0.41342 -0.05827,0.14552 -0.221422,0.48782 -0.36255,0.76067 -0.882738,1.70666 -1.856441,3.06869 -2.405834,3.36532 -0.352728,0.19045 -0.674027,0.13677 -0.85962,-0.1436 l -0.09335,-0.14103 -0.01654,-2.06009 c -0.01542,-1.92047 -0.02054,-2.06408 -0.07557,-2.11911 -0.05476,-0.0548 -0.173985,-0.0597 -1.645377,-0.0682 -0.872488,-0.005 -1.586342,-3.1e-4 -1.586342,0.0105 0,0.0109 0.125674,0.2021 0.279275,0.42497 0.517177,0.75041 0.531012,0.82418 0.531012,2.83135 0,1.40034 -0.0054,1.55329 -0.06002,1.70998 -0.06426,0.18423 -0.22803,0.35749 -0.372092,0.39365 -0.237243,0.0596 -0.533108,-0.0724 -0.852945,-0.38045 -0.594927,-0.57297 -1.319832,-1.74782 -1.85592,-3.00788 -0.185038,-0.43493 -0.572523,-1.46156 -0.647726,-1.71613 -0.07778,-0.26331 -0.04407,-0.25563 -1.169953,-0.26647 -0.624082,-0.006 -1.032958,0.003 -1.088391,0.0241 -0.151987,0.0578 -0.176015,0.16601 -0.109475,0.49308 0.181598,0.89262 0.818562,2.35306 1.62497,3.72573 0.391518,0.66645 0.954654,1.53752 1.235833,1.91162 0.917958,1.22131 2.064725,2.11432 3.312259,2.57932 0.63463,0.23655 1.078683,0.31911 1.671302,0.31073 0.390792,-0.006 0.446384,-0.014 0.595007,-0.0906 z"
       id="path2" /></g></svg>
